<svg xmlns="http://www.w3.org/2000/svg" width="1400" height="850" viewBox="0 0 1400 850" role="img" aria-labelledby="chart-title chart-desc">
<title id="chart-title">身份先稳定，动作才会可信</title>
<desc id="chart-desc">候选制作管线：每个体型单独适配动作和服饰，不把整张静态图缩放当肢体动画。。图中的新增流程均为候选设计；当前实现范围以报告正文为准。</desc>
<defs><marker id="arrow-376F59" markerWidth="9" markerHeight="9" refX="8" refY="4.5" orient="auto" markerUnits="userSpaceOnUse"><path d="M0,0 L8,4.5 L0,9 Z" fill="#376F59"/></marker><marker id="arrow-397B8C" markerWidth="9" markerHeight="9" refX="8" refY="4.5" orient="auto" markerUnits="userSpaceOnUse"><path d="M0,0 L8,4.5 L0,9 Z" fill="#397B8C"/></marker><marker id="arrow-B98338" markerWidth="9" markerHeight="9" refX="8" refY="4.5" orient="auto" markerUnits="userSpaceOnUse"><path d="M0,0 L8,4.5 L0,9 Z" fill="#B98338"/></marker><pattern id="dots" width="24" height="24" patternUnits="userSpaceOnUse"><circle cx="2" cy="2" r="0.8" fill="#DFE5DA" opacity="0.45"/></pattern></defs>
<g font-family="Microsoft YaHei, 微软雅黑, Noto Sans CJK SC, sans-serif">
<rect width="1400" height="850" fill="#F6F3EB"/>
<rect x="0" y="175" width="1400" height="590" fill="url(#dots)"/>
<text x="70" y="45" fill="#376F59" font-size="16" font-weight="600" text-anchor="start">FOOD LINK  /  COMPANION EXPERIENCE</text>
<text x="70" y="104" fill="#243F38" font-size="44" font-weight="600" text-anchor="start">身份先稳定，动作才会可信</text>
<text x="70" y="143" fill="#667B72" font-size="20" font-weight="400" text-anchor="start">候选制作管线：每个体型单独适配动作和服饰，不把整张静态图缩放当肢体动画。</text>
<path d="M70,167 H1330" stroke="#D5DED3" stroke-width="1.5"/>
<rect x="70" y="294" width="315" height="170" rx="24" fill="#FFFEFA" stroke="#D9E2D9" stroke-width="1.5"/><circle cx="105" cy="330" r="17" fill="#397B8C"/><text x="105" y="336" fill="#FFFFFF" font-size="16" font-weight="600" text-anchor="middle">01</text><text x="133" y="338" fill="#243F38" font-size="26" font-weight="600" text-anchor="start">身份与外观版本</text><text x="95" y="379" fill="#667B72" font-size="20" font-weight="400" text-anchor="start">当前宠物 · 用户命名</text><text x="95" y="409" fill="#667B72" font-size="20" font-weight="400" text-anchor="start">形象版本 · 穿搭档案</text><rect x="470" y="208" width="320" height="145" rx="24" fill="#FFFEFA" stroke="#D9E2D9" stroke-width="1.5"/><circle cx="505" cy="244" r="17" fill="#376F59"/><text x="505" y="250" fill="#FFFFFF" font-size="16" font-weight="600" text-anchor="middle">A</text><text x="533" y="252" fill="#243F38" font-size="26" font-weight="600" text-anchor="start">像素图集</text><text x="495" y="293" fill="#667B72" font-size="20" font-weight="400" text-anchor="start">逐帧姿势 + 服饰帧映射</text><text x="495" y="323" fill="#667B72" font-size="20" font-weight="400" text-anchor="start">适用于像素角色</text><rect x="470" y="405" width="320" height="145" rx="24" fill="#FFFEFA" stroke="#D9E2D9" stroke-width="1.5"/><circle cx="505" cy="441" r="17" fill="#376F59"/><text x="505" y="447" fill="#FFFFFF" font-size="16" font-weight="600" text-anchor="middle">B</text><text x="533" y="449" fill="#243F38" font-size="26" font-weight="600" text-anchor="start">分层骨骼</text><text x="495" y="490" fill="#667B72" font-size="20" font-weight="400" text-anchor="start">身体层级 + 骨骼绑定</text><text x="495" y="520" fill="#667B72" font-size="20" font-weight="400" text-anchor="start">适用于可拆层角色</text><path d="M 396,364 L 432,364 L 432,280 L 458,280" fill="none" stroke="#397B8C" stroke-width="3" stroke-linecap="round" stroke-linejoin="round" marker-end="url(#arrow-397B8C)"/><path d="M 432,364 L 432,477 L 458,477" fill="none" stroke="#397B8C" stroke-width="3" stroke-linecap="round" stroke-linejoin="round" marker-end="url(#arrow-397B8C)"/><rect x="880" y="294" width="450" height="170" rx="24" fill="#FFFEFA" stroke="#D9E2D9" stroke-width="1.5"/><circle cx="915" cy="330" r="17" fill="#397B8C"/><text x="915" y="336" fill="#FFFFFF" font-size="16" font-weight="600" text-anchor="middle">02</text><text x="943" y="338" fill="#243F38" font-size="26" font-weight="600" text-anchor="start">动作状态机</text><text x="905" y="379" fill="#667B72" font-size="20" font-weight="400" text-anchor="start">待机 → 行动 → 反馈 → 恢复</text><text x="905" y="409" fill="#667B72" font-size="20" font-weight="400" text-anchor="start">动作切换、时机与中断可控</text><path d="M 802,280 L 841,280 L 841,364 L 868,364" fill="none" stroke="#376F59" stroke-width="3" stroke-linecap="round" stroke-linejoin="round" marker-end="url(#arrow-376F59)"/><path d="M 802,477 L 841,477 L 841,364" fill="none" stroke="#376F59" stroke-width="3" stroke-linecap="round" stroke-linejoin="round" marker-end="url(#arrow-376F59)"/><rect x="880" y="602" width="450" height="133" rx="24" fill="#FFFEFA" stroke="#D9E2D9" stroke-width="1.5"/><circle cx="915" cy="638" r="17" fill="#B98338"/><text x="915" y="644" fill="#FFFFFF" font-size="16" font-weight="600" text-anchor="middle">03</text><text x="943" y="646" fill="#243F38" font-size="26" font-weight="600" text-anchor="start">动作与服饰锚点</text><text x="905" y="687" fill="#667B72" font-size="20" font-weight="400" text-anchor="start">颈部、手持、遮挡随姿势变化</text><path d="M 1105,476 L 1105,590" fill="none" stroke="#397B8C" stroke-width="3" stroke-linecap="round" stroke-linejoin="round" marker-end="url(#arrow-397B8C)"/><text x="1119" y="543" fill="#667B72" font-size="18" font-weight="400" text-anchor="start">同一份兼容规则</text><rect x="70" y="602" width="700" height="133" rx="24" fill="#EEF4EB" stroke="#D9E2D9" stroke-width="1.5"/><circle cx="105" cy="638" r="17" fill="#376F59"/><text x="105" y="644" fill="#FFFFFF" font-size="16" font-weight="600" text-anchor="middle">04</text><text x="133" y="646" fill="#243F38" font-size="26" font-weight="600" text-anchor="start">所有界面保持同一位伙伴</text><text x="95" y="687" fill="#667B72" font-size="20" font-weight="400" text-anchor="start">首页 · 聊天 · 小屋 · 四游戏 · 换装预览</text><path d="M 868,668 L 782,668" fill="none" stroke="#B98338" stroke-width="3" stroke-linecap="round" stroke-linejoin="round" marker-end="url(#arrow-B98338)"/><text x="700" y="581" fill="#667B72" font-size="19" font-weight="400" text-anchor="middle">选择适合该角色的素材管线；未适配时保留身份与原外观。</text>
<path d="M70,780 H1330" stroke="#D5DED3" stroke-width="1.5"/>
<text x="70" y="818" fill="#667B72" font-size="17" font-weight="400" text-anchor="start">食探 · 宠物成长设计报告</text>
<text x="1328" y="818" fill="#667B72" font-size="17" font-weight="400" text-anchor="end">候选设计 · 待原型与试玩验证</text>
<text x="1328" y="46" fill="#667B72" font-size="16" font-weight="500" text-anchor="end">03 / 06</text>
</g></svg>